<?xml version="1.0" encoding="UTF-8" standalone="no"?>
<!-- Created with Inkscape (http://www.inkscape.org/) -->

<svg
   xmlns:dc="http://purl.org/dc/elements/1.1/"
   xmlns:cc="http://creativecommons.org/ns#"
   xmlns:rdf="http://www.w3.org/1999/02/22-rdf-syntax-ns#"
   xmlns:svg="http://www.w3.org/2000/svg"
   xmlns="http://www.w3.org/2000/svg"
   xmlns:sodipodi="http://sodipodi.sourceforge.net/DTD/sodipodi-0.dtd"
   xmlns:inkscape="http://www.inkscape.org/namespaces/inkscape"
   width="744.09448819"
   height="1052.3622047"
   id="svg2"
   version="1.1"
   inkscape:version="0.48.4 r9939"
   sodipodi:docname="flightcase.svg">
  <defs
     id="defs4" />
  <sodipodi:namedview
     id="base"
     pagecolor="#ffffff"
     bordercolor="#666666"
     borderopacity="1.0"
     inkscape:pageopacity="0.0"
     inkscape:pageshadow="2"
     inkscape:zoom="0.45254834"
     inkscape:cx="1948.6622"
     inkscape:cy="-595.92111"
     inkscape:document-units="px"
     inkscape:current-layer="layer1"
     showgrid="false"
     inkscape:window-width="1366"
     inkscape:window-height="702"
     inkscape:window-x="0"
     inkscape:window-y="27"
     inkscape:window-maximized="1">
    <inkscape:grid
       type="xygrid"
       id="grid2985" />
  </sodipodi:namedview>
  <metadata
     id="metadata7">
    <rdf:RDF>
      <cc:Work
         rdf:about="">
        <dc:format>image/svg+xml</dc:format>
        <dc:type
           rdf:resource="http://purl.org/dc/dcmitype/StillImage" />
        <dc:title></dc:title>
      </cc:Work>
    </rdf:RDF>
  </metadata>
  <g
     inkscape:label="Layer 1"
     inkscape:groupmode="layer"
     id="layer1">
    <rect
       transform="matrix(0,1,-1,0,0,0)"
       style="fill:#1da900;fill-opacity:0.29493091;stroke:none"
       id="rect3157"
       width="626.67352"
       height="364.0466"
       x="1221.2726"
       y="-2039.0745" />
    <rect
       y="-1518.4182"
       x="1225.6919"
       height="618.16309"
       width="624.46381"
       id="rect3141"
       style="fill:#1da900;fill-opacity:0.29493091;stroke:none"
       transform="matrix(0,1,-1,0,0,0)" />
    <rect
       style="fill:#1da900;fill-opacity:0.29493091;stroke:none"
       id="rect2987"
       width="300"
       height="200"
       x="59.505028"
       y="-924.28571"
       transform="matrix(0,1,-1,0,0,0)" />
    <rect
       y="-707.14288"
       x="56.647892"
       height="200"
       width="300"
       id="rect3001"
       style="fill:#1da900;fill-opacity:0.29493091;stroke:none"
       transform="matrix(0,1,-1,0,0,0)" />
    <g
       id="g3023"
       transform="matrix(0.40816327,0,0,1,462.21684,-56)">
      <rect
         transform="matrix(0,1,-1,0,0,0)"
         style="fill:#1da900;fill-opacity:0.29493091;stroke:none"
         id="rect3013"
         width="120"
         height="490"
         x="1617.8801"
         y="-1575.125" />
      <rect
         y="-1575.125"
         x="1722.8801"
         height="490"
         width="15"
         id="rect3021"
         style="fill:#1da900;fill-opacity:0.29493091;stroke:none"
         transform="matrix(0,1,-1,0,0,0)" />
    </g>
    <g
       id="g3027"
       transform="matrix(0.40816327,0,0,1,462.21684,-162)">
      <rect
         y="-1575.125"
         x="1617.8801"
         height="490"
         width="120"
         id="rect3029"
         style="fill:#1da900;fill-opacity:0.29493091;stroke:none"
         transform="matrix(0,1,-1,0,0,0)" />
      <rect
         transform="matrix(0,1,-1,0,0,0)"
         style="fill:#1da900;fill-opacity:0.29493091;stroke:none"
         id="rect3031"
         width="15"
         height="490"
         x="1722.8801"
         y="-1575.125" />
    </g>
    <g
       transform="matrix(0.40816327,0,0,1,462.21684,-268)"
       id="g3033">
      <rect
         transform="matrix(0,1,-1,0,0,0)"
         style="fill:#1da900;fill-opacity:0.29493091;stroke:none"
         id="rect3035"
         width="120"
         height="490"
         x="1617.8801"
         y="-1575.125" />
      <rect
         y="-1575.125"
         x="1722.8801"
         height="490"
         width="15"
         id="rect3037"
         style="fill:#1da900;fill-opacity:0.29493091;stroke:none"
         transform="matrix(0,1,-1,0,0,0)" />
    </g>
    <g
       id="g3039"
       transform="matrix(0.40816327,0,0,1,462.21684,-374)">
      <rect
         y="-1575.125"
         x="1617.8801"
         height="490"
         width="120"
         id="rect3041"
         style="fill:#1da900;fill-opacity:0.29493091;stroke:none"
         transform="matrix(0,1,-1,0,0,0)" />
      <rect
         transform="matrix(0,1,-1,0,0,0)"
         style="fill:#1da900;fill-opacity:0.29493091;stroke:none"
         id="rect3043"
         width="15"
         height="490"
         x="1722.8801"
         y="-1575.125" />
    </g>
    <g
       transform="matrix(0.40816327,0,0,1,664.21684,-56)"
       id="g3045">
      <rect
         y="-1575.125"
         x="1617.8801"
         height="490"
         width="120"
         id="rect3047"
         style="fill:#1da900;fill-opacity:0.29493091;stroke:none"
         transform="matrix(0,1,-1,0,0,0)" />
      <rect
         transform="matrix(0,1,-1,0,0,0)"
         style="fill:#1da900;fill-opacity:0.29493091;stroke:none"
         id="rect3049"
         width="15"
         height="490"
         x="1722.8801"
         y="-1575.125" />
    </g>
    <g
       transform="matrix(0.40816327,0,0,1,664.21684,-162)"
       id="g3051">
      <rect
         transform="matrix(0,1,-1,0,0,0)"
         style="fill:#1da900;fill-opacity:0.29493091;stroke:none"
         id="rect3053"
         width="120"
         height="490"
         x="1617.8801"
         y="-1575.125" />
      <rect
         y="-1575.125"
         x="1722.8801"
         height="490"
         width="15"
         id="rect3055"
         style="fill:#1da900;fill-opacity:0.29493091;stroke:none"
         transform="matrix(0,1,-1,0,0,0)" />
    </g>
    <g
       id="g3057"
       transform="matrix(0.40816327,0,0,1,664.21684,-268)">
      <rect
         y="-1575.125"
         x="1617.8801"
         height="490"
         width="120"
         id="rect3059"
         style="fill:#1da900;fill-opacity:0.29493091;stroke:none"
         transform="matrix(0,1,-1,0,0,0)" />
      <rect
         transform="matrix(0,1,-1,0,0,0)"
         style="fill:#1da900;fill-opacity:0.29493091;stroke:none"
         id="rect3061"
         width="15"
         height="490"
         x="1722.8801"
         y="-1575.125" />
    </g>
    <g
       transform="matrix(0.40816327,0,0,1,664.21684,-374)"
       id="g3063">
      <rect
         transform="matrix(0,1,-1,0,0,0)"
         style="fill:#1da900;fill-opacity:0.29493091;stroke:none"
         id="rect3065"
         width="120"
         height="490"
         x="1617.8801"
         y="-1575.125" />
      <rect
         y="-1575.125"
         x="1722.8801"
         height="490"
         width="15"
         id="rect3067"
         style="fill:#1da900;fill-opacity:0.29493091;stroke:none"
         transform="matrix(0,1,-1,0,0,0)" />
    </g>
    <g
       transform="matrix(0.6122449,0,0,1,1040.7627,-58)"
       id="g3069">
      <rect
         y="-1575.125"
         x="1617.8801"
         height="490"
         width="120"
         id="rect3071"
         style="fill:#1da900;fill-opacity:0.29493091;stroke:none"
         transform="matrix(0,1,-1,0,0,0)" />
      <rect
         transform="matrix(0,1,-1,0,0,0)"
         style="fill:#1da900;fill-opacity:0.29493091;stroke:none"
         id="rect3073"
         width="15"
         height="490"
         x="1722.8801"
         y="-1575.125" />
    </g>
    <g
       transform="matrix(0.6122449,0,0,1,1040.7627,-164)"
       id="g3075">
      <rect
         transform="matrix(0,1,-1,0,0,0)"
         style="fill:#1da900;fill-opacity:0.29493091;stroke:none"
         id="rect3077"
         width="120"
         height="490"
         x="1617.8801"
         y="-1575.125" />
      <rect
         y="-1575.125"
         x="1722.8801"
         height="490"
         width="15"
         id="rect3079"
         style="fill:#1da900;fill-opacity:0.29493091;stroke:none"
         transform="matrix(0,1,-1,0,0,0)" />
    </g>
    <g
       id="g3081"
       transform="matrix(0.6122449,0,0,1,1040.7627,-270)">
      <rect
         y="-1575.125"
         x="1617.8801"
         height="490"
         width="120"
         id="rect3083"
         style="fill:#1da900;fill-opacity:0.29493091;stroke:none"
         transform="matrix(0,1,-1,0,0,0)" />
      <rect
         transform="matrix(0,1,-1,0,0,0)"
         style="fill:#1da900;fill-opacity:0.29493091;stroke:none"
         id="rect3085"
         width="15"
         height="490"
         x="1722.8801"
         y="-1575.125" />
    </g>
    <g
       transform="matrix(0.6122449,0,0,1,1040.7627,-376)"
       id="g3087">
      <rect
         transform="matrix(0,1,-1,0,0,0)"
         style="fill:#1da900;fill-opacity:0.29493091;stroke:none"
         id="rect3089"
         width="120"
         height="490"
         x="1617.8801"
         y="-1575.125" />
      <rect
         y="-1575.125"
         x="1722.8801"
         height="490"
         width="15"
         id="rect3091"
         style="fill:#1da900;fill-opacity:0.29493091;stroke:none"
         transform="matrix(0,1,-1,0,0,0)" />
    </g>
    <rect
       y="-2155.125"
       x="834.1463"
       height="490"
       width="321.73373"
       id="rect3143"
       style="fill:#1da900;fill-opacity:0.29493091;stroke:none"
       transform="matrix(0,1,-1,0,0,0)" />
    <rect
       style="fill:#1da900;fill-opacity:0.29493091;stroke:none"
       id="rect3145"
       width="400"
       height="300"
       x="1709.7144"
       y="842.36218" />
    <rect
       transform="matrix(0,1,-1,0,0,0)"
       style="fill:#1da900;fill-opacity:0.29493091;stroke:none"
       id="rect3167"
       width="52.149269"
       height="622.58252"
       x="1171.5638"
       y="-1519.2726" />
    <rect
       y="-2036.655"
       x="1169.5638"
       height="364.04663"
       width="52.149269"
       id="rect3169"
       style="fill:#1da900;fill-opacity:0.29493091;stroke:none"
       transform="matrix(0,1,-1,0,0,0)" />
    <g
       id="g3171"
       transform="matrix(0.40816327,0,0,1,868.2168,-56)">
      <rect
         transform="matrix(0,1,-1,0,0,0)"
         style="fill:#1da900;fill-opacity:0.29493091;stroke:none"
         id="rect3173"
         width="120"
         height="490"
         x="1617.8801"
         y="-1575.125" />
      <rect
         y="-1575.125"
         x="1722.8801"
         height="490"
         width="15"
         id="rect3175"
         style="fill:#1da900;fill-opacity:0.29493091;stroke:none"
         transform="matrix(0,1,-1,0,0,0)" />
    </g>
    <g
       id="g3177"
       transform="matrix(0.40816327,0,0,1,868.2168,-162)">
      <rect
         y="-1575.125"
         x="1617.8801"
         height="490"
         width="120"
         id="rect3179"
         style="fill:#1da900;fill-opacity:0.29493091;stroke:none"
         transform="matrix(0,1,-1,0,0,0)" />
      <rect
         transform="matrix(0,1,-1,0,0,0)"
         style="fill:#1da900;fill-opacity:0.29493091;stroke:none"
         id="rect3181"
         width="15"
         height="490"
         x="1722.8801"
         y="-1575.125" />
    </g>
    <g
       transform="matrix(0.40816327,0,0,1,868.2168,-268)"
       id="g3183">
      <rect
         transform="matrix(0,1,-1,0,0,0)"
         style="fill:#1da900;fill-opacity:0.29493091;stroke:none"
         id="rect3185"
         width="120"
         height="490"
         x="1617.8801"
         y="-1575.125" />
      <rect
         y="-1575.125"
         x="1722.8801"
         height="490"
         width="15"
         id="rect3187"
         style="fill:#1da900;fill-opacity:0.29493091;stroke:none"
         transform="matrix(0,1,-1,0,0,0)" />
    </g>
    <g
       id="g3189"
       transform="matrix(0.40816327,0,0,1,870.42651,-371.79029)">
      <rect
         y="-1575.125"
         x="1617.8801"
         height="490"
         width="120"
         id="rect3191"
         style="fill:#1da900;fill-opacity:0.29493091;stroke:none"
         transform="matrix(0,1,-1,0,0,0)" />
      <rect
         transform="matrix(0,1,-1,0,0,0)"
         style="fill:#1da900;fill-opacity:0.29493091;stroke:none"
         id="rect3193"
         width="15"
         height="490"
         x="1722.8801"
         y="-1575.125" />
    </g>
    <path
       sodipodi:type="arc"
       style="fill:#1da900;fill-opacity:0.29493091;stroke:none"
       id="path3238"
       sodipodi:cx="1005.4175"
       sodipodi:cy="2055.5698"
       sodipodi:rx="64.081551"
       sodipodi:ry="57.452427"
       d="m 1069.499,2055.5698 a 64.081551,57.452427 0 1 1 -128.16307,0 64.081551,57.452427 0 1 1 128.16307,0 z"
       transform="matrix(0.78025578,0,0,0.87028525,940.47645,126.0397)" />
    <path
       transform="matrix(0.78025578,0,0,0.87028525,1207.3308,128.2494)"
       d="m 1069.499,2055.5698 a 64.081551,57.452427 0 1 1 -128.16307,0 64.081551,57.452427 0 1 1 128.16307,0 z"
       sodipodi:ry="57.452427"
       sodipodi:rx="64.081551"
       sodipodi:cy="2055.5698"
       sodipodi:cx="1005.4175"
       id="path3240"
       style="fill:#1da900;fill-opacity:0.29493091;stroke:none"
       sodipodi:type="arc" />
    <path
       transform="matrix(0.78025578,0,0,0.87028525,189.54053,134.87853)"
       d="m 1069.499,2055.5698 a 64.081551,57.452427 0 1 1 -128.16307,0 64.081551,57.452427 0 1 1 128.16307,0 z"
       sodipodi:ry="57.452427"
       sodipodi:rx="64.081551"
       sodipodi:cy="2055.5698"
       sodipodi:cx="1005.4175"
       id="path3242"
       style="fill:#1da900;fill-opacity:0.29493091;stroke:none"
       sodipodi:type="arc" />
    <path
       sodipodi:type="arc"
       style="fill:#1da900;fill-opacity:0.29493091;stroke:none"
       id="path3244"
       sodipodi:cx="1005.4175"
       sodipodi:cy="2055.5698"
       sodipodi:rx="64.081551"
       sodipodi:ry="57.452427"
       d="m 1069.499,2055.5698 a 64.081551,57.452427 0 1 1 -128.16307,0 64.081551,57.452427 0 1 1 128.16307,0 z"
       transform="matrix(0.78025578,0,0,0.87028525,679.57545,130.45911)" />
    <rect
       transform="matrix(0,1,-1,0,0,0)"
       style="fill:#1da900;fill-opacity:0.29493091;stroke:none"
       id="rect3246"
       width="52.149269"
       height="357.41751"
       x="1217.9832"
       y="-2401.929" />
    <rect
       style="fill:#1da900;fill-opacity:0.29493091;stroke:none"
       id="rect3248"
       width="40"
       height="691.63885"
       x="2351.2195"
       y="1274.0088" />
    <rect
       transform="matrix(0,1,-1,0,0,0)"
       style="fill:#1da900;fill-opacity:0.29493091;stroke:none"
       id="rect3250"
       width="622"
       height="394.98254"
       x="1289.8468"
       y="-2959.688" />
    <rect
       y="-3428.189"
       x="1303.1051"
       height="394.98254"
       width="622"
       id="rect3252"
       style="fill:#1da900;fill-opacity:0.29493091;stroke:none"
       transform="matrix(0,1,-1,0,0,0)" />
    <g
       id="g3262"
       transform="matrix(2,0,0,1,-1307.8163,-364.68739)">
      <rect
         y="-1307.125"
         x="2033.8801"
         height="200"
         width="170"
         id="rect3256"
         style="fill:#1da900;fill-opacity:0.29493091;stroke:none"
         transform="matrix(0,1,-1,0,0,0)" />
      <rect
         transform="matrix(0,1,-1,0,0,0)"
         style="fill:#1da900;fill-opacity:0.29493091;stroke:none"
         id="rect3258"
         width="15"
         height="200"
         x="2188.8801"
         y="-1307.125" />
    </g>
    <g
       transform="translate(201.3087,-364.68739)"
       id="g3278">
      <rect
         transform="matrix(0,1,-1,0,0,0)"
         style="fill:#1da900;fill-opacity:0.29493091;stroke:none"
         id="rect3280"
         width="170"
         height="200"
         x="2033.8801"
         y="-1307.125" />
      <rect
         y="-1307.125"
         x="2188.8801"
         height="200"
         width="15"
         id="rect3282"
         style="fill:#1da900;fill-opacity:0.29493091;stroke:none"
         transform="matrix(0,1,-1,0,0,0)" />
    </g>
    <g
       id="g3284"
       transform="matrix(1.5,0,0,1,45.7462,-364.68739)">
      <rect
         y="-1307.125"
         x="2033.8801"
         height="200"
         width="170"
         id="rect3286"
         style="fill:#1da900;fill-opacity:0.29493091;stroke:none"
         transform="matrix(0,1,-1,0,0,0)" />
      <rect
         transform="matrix(0,1,-1,0,0,0)"
         style="fill:#1da900;fill-opacity:0.29493091;stroke:none"
         id="rect3288"
         width="15"
         height="200"
         x="2188.8801"
         y="-1307.125" />
    </g>
    <text
       xml:space="preserve"
       style="font-size:40px;font-style:normal;font-weight:normal;line-height:125%;letter-spacing:0px;word-spacing:0px;fill:#000000;fill-opacity:1;stroke:none;font-family:Sans"
       x="1111.4835"
       y="2057.7795"
       id="text3290"
       sodipodi:linespacing="125%"><tspan
         sodipodi:role="line"
         id="tspan3292"
         x="1111.4835"
         y="2057.7795">deckel an seitenwand</tspan></text>
  </g>
</svg>
